<?xml version="1.0" encoding="utf-8"?>
<!-- Generator: Adobe Illustrator 27.5.0, SVG Export Plug-In . SVG Version: 6.00 Build 0)  -->
<svg version="1.1" xmlns="http://www.w3.org/2000/svg" xmlns:xlink="http://www.w3.org/1999/xlink" x="0px" y="0px"
	 viewBox="0 0 841.89 566.929" style="enable-background:new 0 0 841.89 566.929;" xml:space="preserve">
<g id="BG">
	<rect y="0" style="fill:#FFFFFF;" width="841.89" height="566.929"/>
</g>
<g id="graphics">
	<g>
		<g>
			<path style="fill:#535D60;" d="M407.451,249.835c0.083-0.413,0.495-0.413,0.495-0.413s9.755-2.893,22.154-2.48
				c12.647,0.413,22.401,6.778,20.253,18.93c-1.488,8.845-9.094,21.327-31.248,20.418l-0.743,3.968
				c-1.818,13.061,4.463,10.251,3.224,12.565c-1.569,2.976-7.356,6.695-12.316,6.695c-6.695,0-11.656-4.216-9.837-14.467
				L407.451,249.835z M424.479,255.87l-3.885,21.906c6.612,0,11.572-6.035,12.647-12.069
				C434.316,259.507,430.845,254.878,424.479,255.87z"/>
			<path style="fill:#535D60;" d="M493.086,303.401c-1.404,2.563-6.447,5.786-11.076,5.786c-6.696,0-11.242-4.794-9.921-12.564
				c0.497-2.811,1.819-10.333,2.81-16.037c1.489-8.267-7.439-5.374-9.258,4.381c-2.149,12.234-3.885,22.153-3.885,22.153
				c-0.083,0.414-0.413,0.496-0.413,0.496h-15.872c0,0-0.33-0.082-0.248-0.413c0,0,8.433-49.764,10.003-58.691
				c0-0.33,0.331-0.33,0.331-0.33h16.283c0,0,0.331-0.083,0.248,0.33c-1.074,6.034-2.562,14.631-4.38,24.964
				c4.794-6.778,11.076-9.258,15.375-9.258c6.116,0,10.416,5.373,8.927,13.639c-0.578,3.472-1.157,6.696-2.23,12.895
				C487.465,303.897,494.243,301.087,493.086,303.401z"/>
			<path style="fill:#535D60;" d="M513.914,309.519c-13.309,0-21.327-10.002-19.178-22.484c2.149-12.4,13.723-22.485,27.031-22.485
				c13.309,0,21.409,10.085,19.26,22.485C538.796,299.517,527.472,309.519,513.914,309.519z M515.484,300.178
				c4.96,0,7.937-5.869,9.26-13.144c1.239-7.109,0.247-13.144-4.548-13.144c-4.876,0-7.935,6.034-9.175,13.144
				C509.781,293.978,510.69,300.178,515.484,300.178z"/>
			<path style="fill:#535D60;" d="M583.347,296.127c-1.57,3.472-10.168,13.227-22.236,13.227c-12.483,0-20.584-10.085-18.435-22.567
				c2.067-12.069,13.309-22.485,27.527-22.485c13.557,0,17.854,8.515,16.863,14.384c-2.314,12.978-17.69,14.548-28.189,12.73
				c1.406,8.267,12.234,9.094,23.312,3.473c0.413-0.249,0.827-0.332,1.074-0.084C583.595,295.052,583.677,295.384,583.347,296.127z
				 M559.456,284.141c7.275,0.661,11.409-2.066,12.152-6.53c0.413-2.232-1.074-4.133-3.638-3.968c0,0-0.082,0.083-0.165,0.083
				c-0.082,0-0.165,0-0.248,0c-0.579,0.083-1.322,0.331-2.066,0.744C562.433,276.122,560.531,280.09,559.456,284.141z"/>
			<path style="fill:#535D60;" d="M634.099,303.401c-1.405,2.563-6.365,5.786-10.995,5.786c-6.612,0-11.324-4.794-10.001-12.564
				c0.495-2.811,1.818-10.333,2.892-16.037c1.406-8.267-7.439-5.374-9.258,4.381c-1.653,9.424-3.885,22.153-3.885,22.153
				c-0.082,0.414-0.496,0.496-0.496,0.496h-16.533c0,0-0.33-0.082-0.248-0.413c0,0,3.968-18.848,4.96-24.552
				c2.315-13.143-3.885-10.333-2.645-12.565c1.322-2.645,6.281-5.869,10.912-5.869c5.786,0,9.67,3.638,9.67,9.672
				c4.878-7.109,11.243-9.672,15.624-9.672c6.199,0,10.499,5.373,9.011,13.639c-0.579,3.472-1.24,6.696-2.314,12.895
				C628.477,303.897,635.338,301.087,634.099,303.401z"/>
			<path style="fill:#535D60;" d="M652.691,307.617h-16.449c0,0-0.331-0.082-0.331-0.413c0,0,3.968-18.848,4.96-24.552
				c2.314-13.143-3.72-10.333-2.728-12.565c1.404-2.645,6.447-5.869,11.076-5.869c6.696,0,10.664,4.794,9.258,12.565
				c-1.157,6.448-5.372,30.337-5.372,30.337C653.105,307.535,652.691,307.617,652.691,307.617z M650.873,261.987
				c-5.29,0-9.01-3.389-8.266-7.688c0.743-4.216,5.703-7.688,10.993-7.688c5.291,0,9.011,3.472,8.268,7.688
				C661.123,258.598,656.164,261.987,650.873,261.987z"/>
			<path style="fill:#535D60;" d="M703.775,307.121c0.083,0.248,0,0.496-0.33,0.496c-4.299,0-13.723,0-18.269,0
				c-0.331,0-0.579-0.248-0.661-0.413l-6.697-14.301c-7.439,1.9-0.826,9.92-0.99,10.663c-0.414,2.728-4.961,5.869-9.59,5.869
				c-6.612,0-10.085-3.968-9.342-9.672c0.992-7.274,6.2-11.821,16.368-14.052l-10.085-19.261c-0.083-0.248,0.166-0.414,0.33-0.414
				c4.63,0,13.475,0,17.938,0c0.249,0,0.496,0.166,0.579,0.414l6.778,14.053c6.944-1.901,0.413-9.506,0.495-10.085
				c0.414-2.727,4.96-5.787,9.589-5.787c6.613,0,10.251,4.547,9.26,10.168c-1.158,6.283-8.185,10.663-15.955,12.316L703.775,307.121
				z"/>
		</g>
	</g>
	<g>
		<g>
			<path style="fill:#5E6A72;" d="M406.996,326.264l-3.284,14.905h-2.028l3.284-14.905h-2.898l0.386-1.707h2.866l0.515-2.414
				c0.258-1.224,0.72-2.19,1.384-2.897c0.665-0.708,1.686-1.063,3.059-1.063c0.365,0,0.72,0.011,1.063,0.032
				c0.344,0.021,0.688,0.085,1.03,0.193l-0.354,1.673c-0.215-0.042-0.424-0.085-0.628-0.129c-0.204-0.042-0.414-0.064-0.628-0.064
				c-0.944,0-1.621,0.189-2.028,0.563c-0.408,0.377-0.708,0.973-0.901,1.787l-0.483,2.318h3.284l-0.386,1.707H406.996z"/>
			<path style="fill:#5E6A72;" d="M417.846,318.183l-4.959,22.986h-1.995l4.926-22.986H417.846z"/>
			<path style="fill:#5E6A72;" d="M419.294,345.58c0.622,0,1.148-0.193,1.577-0.58c0.43-0.386,0.772-0.794,1.03-1.223l1.514-2.608
				l-3.058-16.612h2.124l2.382,14.102h0.064l7.663-14.102h2.19l-11.816,20.509c-0.859,1.48-2.201,2.221-4.025,2.221
				c-0.278,0-0.563-0.021-0.853-0.064c-0.289-0.044-0.584-0.075-0.886-0.097l0.387-1.643
				C418.167,345.549,418.736,345.58,419.294,345.58z"/>
			<path style="fill:#5E6A72;" d="M440.864,324.557l-3.574,16.612h-1.995l3.541-16.612H440.864z M442.249,318.183l-0.709,3.251
				h-2.028l0.709-3.251H442.249z"/>
			<path style="fill:#5E6A72;" d="M448.43,324.557l-0.58,3.026h0.065c0.622-0.986,1.454-1.818,2.494-2.494
				c1.042-0.677,2.184-1.015,3.43-1.015c0.728,0,1.4,0.086,2.012,0.258c0.611,0.171,1.143,0.435,1.594,0.788
				c0.45,0.353,0.799,0.815,1.046,1.384c0.246,0.57,0.371,1.252,0.371,2.045c0,0.451-0.087,1.105-0.258,1.965l-2.286,10.655h-2.028
				l2.318-10.721c0.064-0.258,0.118-0.531,0.16-0.82c0.043-0.291,0.065-0.574,0.065-0.853c0-0.559-0.098-1.025-0.29-1.4
				c-0.193-0.375-0.451-0.682-0.773-0.918c-0.322-0.235-0.693-0.407-1.111-0.515c-0.418-0.107-0.853-0.161-1.304-0.161
				c-0.729,0-1.439,0.161-2.125,0.483c-0.687,0.321-1.32,0.777-1.899,1.367c-0.58,0.591-1.085,1.31-1.513,2.157
				c-0.43,0.849-0.752,1.798-0.967,2.85l-1.835,8.531h-1.995l3.541-16.612H448.43z"/>
			<path style="fill:#5E6A72;" d="M475.41,343.165c-0.43,1.052-0.967,1.916-1.61,2.592c-0.643,0.676-1.423,1.181-2.334,1.514
				c-0.913,0.333-2.013,0.499-3.301,0.499c-0.858,0-1.668-0.097-2.431-0.289c-0.762-0.194-1.433-0.5-2.012-0.919
				c-0.58-0.418-1.041-0.971-1.384-1.657c-0.343-0.688-0.525-1.524-0.548-2.512h1.996c0,0.709,0.134,1.298,0.402,1.771
				c0.269,0.472,0.617,0.848,1.046,1.127c0.43,0.277,0.923,0.477,1.481,0.595c0.559,0.118,1.138,0.178,1.738,0.178
				c0.858,0,1.6-0.141,2.222-0.419c0.622-0.278,1.153-0.645,1.594-1.095c0.44-0.451,0.805-0.971,1.095-1.561
				c0.29-0.591,0.531-1.188,0.724-1.787c0.194-0.602,0.354-1.196,0.483-1.787c0.129-0.59,0.258-1.121,0.387-1.595l-0.065-0.064
				c-0.558,0.987-1.362,1.744-2.414,2.271c-1.052,0.525-2.136,0.788-3.252,0.788c-0.987,0-1.867-0.172-2.64-0.515
				c-0.772-0.343-1.416-0.822-1.932-1.433c-0.515-0.612-0.907-1.325-1.175-2.142c-0.27-0.815-0.402-1.706-0.402-2.673
				c0-1.223,0.192-2.431,0.579-3.621c0.387-1.191,0.944-2.259,1.674-3.204c0.729-0.944,1.621-1.706,2.673-2.285
				c1.052-0.579,2.242-0.869,3.573-0.869c0.622,0,1.234,0.08,1.835,0.242c0.601,0.16,1.153,0.401,1.658,0.724
				c0.504,0.322,0.928,0.73,1.272,1.224c0.343,0.494,0.568,1.063,0.676,1.706h0.065l0.708-3.413h1.866l-3.154,14.874
				C476.203,340.869,475.839,342.113,475.41,343.165z M465.364,335.889c0.172,0.624,0.445,1.177,0.821,1.658
				c0.375,0.483,0.842,0.864,1.4,1.144c0.558,0.279,1.224,0.418,1.996,0.418c1.03,0,1.953-0.252,2.77-0.756
				c0.814-0.504,1.512-1.159,2.092-1.965c0.58-0.804,1.02-1.695,1.32-2.671c0.301-0.977,0.451-1.927,0.451-2.85
				c0-0.729-0.081-1.404-0.242-2.027c-0.16-0.623-0.424-1.159-0.788-1.61c-0.365-0.45-0.838-0.805-1.417-1.062
				c-0.58-0.258-1.277-0.387-2.092-0.387c-1.03,0-1.954,0.246-2.77,0.741c-0.816,0.493-1.508,1.132-2.076,1.914
				c-0.569,0.784-0.999,1.654-1.288,2.608c-0.291,0.956-0.436,1.905-0.436,2.85C465.106,334.603,465.193,335.267,465.364,335.889z"
				/>
			<path style="fill:#5E6A72;" d="M497.881,324.557l-0.644,2.897l0.065,0.064c0.6-0.966,1.417-1.781,2.447-2.447
				c1.03-0.664,2.167-0.997,3.412-0.997c1.159,0,2.094,0.296,2.801,0.885c0.709,0.591,1.116,1.476,1.225,2.656h0.064
				c0.644-1.03,1.466-1.878,2.463-2.544c0.998-0.664,2.119-0.997,3.364-0.997c1.61,0,2.779,0.407,3.51,1.223
				c0.729,0.816,1.094,1.868,1.094,3.156c0,0.3-0.021,0.606-0.063,0.917c-0.044,0.311-0.097,0.639-0.162,0.981l-2.316,10.817h-2.028
				l2.35-10.881c0.129-0.58,0.192-1.138,0.192-1.675c0-0.815-0.252-1.491-0.756-2.028c-0.505-0.536-1.305-0.805-2.398-0.805
				c-0.88,0-1.648,0.204-2.302,0.612c-0.655,0.407-1.225,0.96-1.706,1.658c-0.483,0.697-0.886,1.512-1.208,2.446
				c-0.321,0.934-0.601,1.936-0.837,3.01l-1.642,7.662h-2.029l2.318-10.817c0.129-0.558,0.193-1.094,0.193-1.609
				c0-0.815-0.22-1.514-0.659-2.092c-0.441-0.58-1.155-0.87-2.142-0.87c-0.729,0-1.429,0.183-2.093,0.547
				c-0.665,0.365-1.268,0.858-1.803,1.481c-0.537,0.623-1.004,1.358-1.4,2.205c-0.398,0.849-0.703,1.755-0.918,2.721l-1.803,8.435
				h-1.996l3.542-16.612H497.881z"/>
			<path style="fill:#5E6A72;" d="M524.2,327.068c0.418-0.688,0.938-1.25,1.561-1.69c0.622-0.439,1.33-0.768,2.125-0.982
				c0.793-0.214,1.631-0.321,2.511-0.321c0.558,0,1.175,0.054,1.851,0.161c0.677,0.107,1.305,0.301,1.884,0.579
				c0.58,0.279,1.063,0.655,1.448,1.127c0.387,0.472,0.58,1.084,0.58,1.835c0,0.408-0.037,0.859-0.112,1.353
				c-0.076,0.493-0.167,0.992-0.273,1.497c-0.107,0.504-0.221,0.997-0.339,1.48c-0.117,0.483-0.22,0.907-0.306,1.271
				c-0.193,0.924-0.36,1.69-0.499,2.303c-0.141,0.611-0.252,1.121-0.338,1.529c-0.086,0.408-0.151,0.739-0.193,0.997
				c-0.043,0.259-0.064,0.515-0.064,0.772c0,0.302,0.118,0.489,0.354,0.565c0.235,0.075,0.472,0.112,0.709,0.112
				c0.148,0,0.283-0.005,0.402-0.016c0.117-0.011,0.251-0.027,0.401-0.049l-0.289,1.577c-0.537,0.108-1.095,0.162-1.674,0.162
				c-1.139,0-1.729-0.591-1.771-1.771c0-0.15,0.005-0.301,0.017-0.451c0.01-0.149,0.025-0.3,0.048-0.45l-0.064-0.063
				c-0.58,0.965-1.395,1.712-2.446,2.236c-1.052,0.525-2.157,0.789-3.316,0.789c-0.772,0-1.482-0.086-2.124-0.258
				c-0.646-0.172-1.198-0.439-1.658-0.805c-0.462-0.364-0.828-0.837-1.096-1.416c-0.268-0.58-0.402-1.277-0.402-2.094
				c0-0.88,0.155-1.619,0.468-2.221c0.31-0.601,0.733-1.095,1.271-1.48c0.536-0.387,1.148-0.693,1.836-0.918
				c0.686-0.226,1.405-0.403,2.156-0.532c1.095-0.171,2.088-0.251,2.979-0.24c0.89,0.011,1.658-0.07,2.303-0.241
				c0.664-0.172,1.163-0.483,1.496-0.935c0.333-0.45,0.499-1.223,0.499-2.318c0-0.493-0.112-0.896-0.339-1.207
				c-0.225-0.311-0.504-0.552-0.836-0.725c-0.333-0.171-0.709-0.289-1.127-0.353c-0.419-0.065-0.821-0.097-1.207-0.097
				c-0.643,0-1.256,0.064-1.836,0.192c-0.579,0.129-1.105,0.339-1.577,0.628c-0.473,0.291-0.864,0.678-1.175,1.159
				c-0.312,0.483-0.521,1.068-0.628,1.755h-2.029C523.507,328.57,523.781,327.756,524.2,327.068z M533.359,332.22
				c-0.173,0.192-0.414,0.349-0.725,0.467c-0.312,0.117-0.639,0.209-0.982,0.273c-0.345,0.065-0.693,0.107-1.047,0.129
				c-0.354,0.022-0.659,0.043-0.917,0.064c-0.623,0.044-1.315,0.103-2.077,0.177c-0.762,0.077-1.477,0.237-2.141,0.483
				c-0.666,0.247-1.224,0.612-1.674,1.095c-0.451,0.483-0.677,1.165-0.677,2.045c0,0.537,0.102,0.993,0.307,1.368
				c0.203,0.376,0.477,0.686,0.82,0.934c0.344,0.247,0.74,0.425,1.19,0.531c0.451,0.107,0.913,0.161,1.385,0.161
				c1.632,0,2.951-0.439,3.96-1.32c1.009-0.879,1.675-2.061,1.997-3.542l0.643-2.801L533.359,332.22z"/>
			<path style="fill:#5E6A72;" d="M552.87,343.165c-0.43,1.052-0.967,1.916-1.61,2.592c-0.644,0.676-1.423,1.181-2.334,1.514
				c-0.912,0.333-2.013,0.499-3.301,0.499c-0.858,0-1.668-0.097-2.43-0.289c-0.763-0.194-1.434-0.5-2.013-0.919
				c-0.58-0.418-1.04-0.971-1.384-1.657c-0.343-0.688-0.525-1.524-0.548-2.512h1.996c0,0.709,0.134,1.298,0.403,1.771
				c0.268,0.472,0.616,0.848,1.046,1.127c0.429,0.277,0.922,0.477,1.48,0.595c0.559,0.118,1.138,0.178,1.739,0.178
				c0.857,0,1.599-0.141,2.221-0.419c0.622-0.278,1.153-0.645,1.594-1.095c0.439-0.451,0.806-0.971,1.095-1.561
				c0.29-0.591,0.531-1.188,0.724-1.787c0.194-0.602,0.354-1.196,0.483-1.787c0.129-0.59,0.258-1.121,0.387-1.595l-0.064-0.064
				c-0.559,0.987-1.363,1.744-2.415,2.271c-1.052,0.525-2.136,0.788-3.251,0.788c-0.988,0-1.868-0.172-2.641-0.515
				c-0.773-0.343-1.416-0.822-1.932-1.433c-0.515-0.612-0.907-1.325-1.175-2.142c-0.27-0.815-0.402-1.706-0.402-2.673
				c0-1.223,0.192-2.431,0.579-3.621c0.388-1.191,0.944-2.259,1.674-3.204c0.73-0.944,1.621-1.706,2.673-2.285
				c1.052-0.579,2.242-0.869,3.573-0.869c0.622,0,1.234,0.08,1.835,0.242c0.602,0.16,1.154,0.401,1.658,0.724
				c0.505,0.322,0.929,0.73,1.272,1.224c0.343,0.494,0.568,1.063,0.676,1.706h0.064l0.708-3.413h1.867l-3.155,14.874
				C553.664,340.869,553.299,342.113,552.87,343.165z M542.825,335.889c0.171,0.624,0.444,1.177,0.82,1.658
				c0.376,0.483,0.842,0.864,1.4,1.144s1.224,0.418,1.997,0.418c1.029,0,1.952-0.252,2.768-0.756
				c0.816-0.504,1.513-1.159,2.092-1.965c0.58-0.804,1.02-1.695,1.321-2.671c0.3-0.977,0.45-1.927,0.45-2.85
				c0-0.729-0.081-1.404-0.242-2.027c-0.16-0.623-0.424-1.159-0.788-1.61c-0.365-0.45-0.838-0.805-1.417-1.062
				c-0.579-0.258-1.277-0.387-2.092-0.387c-1.03,0-1.954,0.246-2.769,0.741c-0.815,0.493-1.508,1.132-2.076,1.914
				c-0.569,0.784-0.999,1.654-1.288,2.608c-0.29,0.956-0.435,1.905-0.435,2.85C542.567,334.603,542.653,335.267,542.825,335.889z"/>
			<path style="fill:#5E6A72;" d="M564.781,324.557l-3.573,16.612h-1.996l3.542-16.612H564.781z M566.166,318.183l-0.708,3.251
				h-2.028l0.708-3.251H566.166z"/>
			<path style="fill:#5E6A72;" d="M580.685,328.066c-0.192-0.494-0.467-0.906-0.82-1.24c-0.354-0.332-0.784-0.59-1.288-0.772
				c-0.505-0.182-1.058-0.273-1.658-0.273c-1.224,0-2.28,0.269-3.171,0.805c-0.891,0.537-1.638,1.234-2.237,2.093
				c-0.602,0.859-1.048,1.824-1.337,2.897c-0.29,1.074-0.435,2.147-0.435,3.22c0,0.729,0.091,1.411,0.273,2.045
				c0.183,0.632,0.468,1.181,0.854,1.642c0.387,0.462,0.87,0.82,1.449,1.078s1.266,0.387,2.061,0.387
				c1.353,0,2.494-0.387,3.429-1.159c0.934-0.772,1.614-1.771,2.043-2.994h2.029c-0.623,1.932-1.567,3.386-2.833,4.362
				c-1.267,0.978-2.909,1.465-4.926,1.465c-2.061,0-3.644-0.622-4.749-1.868c-1.105-1.244-1.658-2.897-1.658-4.957
				c0-1.288,0.204-2.575,0.612-3.863c0.407-1.288,0.998-2.436,1.771-3.445c0.772-1.008,1.717-1.829,2.833-2.463
				c1.115-0.633,2.382-0.949,3.799-0.949c0.901,0,1.739,0.112,2.512,0.338c0.772,0.226,1.438,0.574,1.995,1.046
				c0.559,0.473,0.988,1.064,1.288,1.771c0.301,0.709,0.44,1.546,0.419,2.512h-2.028
				C580.953,329.117,580.879,328.561,580.685,328.066z"/>
			<path style="fill:#5E6A72;" d="M603.029,318.183l-1.963,9.304h0.063c0.58-1.03,1.357-1.856,2.334-2.478
				c0.977-0.622,2.109-0.934,3.397-0.934c1.072,0,2.001,0.177,2.784,0.531c0.783,0.354,1.438,0.837,1.964,1.448
				c0.525,0.612,0.918,1.342,1.176,2.189c0.257,0.849,0.386,1.766,0.386,2.752c0,1.267-0.193,2.534-0.58,3.8
				c-0.386,1.267-0.949,2.403-1.689,3.412c-0.741,1.01-1.658,1.83-2.753,2.464c-1.095,0.632-2.35,0.949-3.768,0.949
				c-1.416,0-2.629-0.365-3.638-1.094c-1.009-0.73-1.652-1.782-1.932-3.156h-0.063l-0.806,3.799h-1.803l4.861-22.986H603.029z
				 M607.166,339.108c0.87-0.558,1.599-1.271,2.189-2.141c0.591-0.869,1.036-1.84,1.336-2.914c0.301-1.073,0.451-2.113,0.451-3.122
				c0-1.546-0.376-2.79-1.127-3.734c-0.751-0.945-1.964-1.417-3.638-1.417c-1.116,0-2.099,0.301-2.946,0.901
				c-0.848,0.601-1.557,1.352-2.125,2.253c-0.569,0.902-0.997,1.884-1.288,2.946c-0.289,1.064-0.434,2.066-0.434,3.011
				c0,0.708,0.091,1.368,0.273,1.979c0.182,0.612,0.461,1.144,0.837,1.595c0.375,0.45,0.848,0.81,1.417,1.078
				c0.568,0.268,1.238,0.402,2.012,0.402C605.283,339.946,606.297,339.667,607.166,339.108z"/>
			<path style="fill:#5E6A72;" d="M621.96,324.557l-3.574,16.612h-1.995l3.541-16.612H621.96z M623.345,318.183l-0.709,3.251h-2.027
				l0.708-3.251H623.345z"/>
			<path style="fill:#5E6A72;" d="M629.494,324.557l-0.838,3.831h0.064c0.644-1.202,1.438-2.178,2.382-2.93
				c0.945-0.751,2.158-1.126,3.64-1.126h0.547c0.106,0,0.203,0,0.289,0c0.085,0,0.172,0.011,0.258,0.032l-0.451,2.028
				c-0.192,0-0.387-0.006-0.579-0.018c-0.193-0.01-0.387-0.016-0.58-0.016c-0.901,0.021-1.7,0.204-2.398,0.548
				c-0.698,0.344-1.304,0.8-1.819,1.368c-0.515,0.568-0.94,1.219-1.271,1.947c-0.333,0.73-0.585,1.481-0.757,2.254l-1.868,8.692
				h-1.995l3.541-16.612H629.494z"/>
			<path style="fill:#5E6A72;" d="M647.908,341.169l0.74-2.994h-0.064c-0.707,1.096-1.529,1.943-2.462,2.544
				c-0.934,0.601-2.131,0.901-3.59,0.901c-2.126,0-3.709-0.616-4.749-1.851c-1.041-1.234-1.562-2.871-1.562-4.911
				c0-1.266,0.21-2.542,0.628-3.83c0.418-1.288,1.024-2.446,1.819-3.477c0.794-1.03,1.749-1.868,2.864-2.512
				c1.117-0.645,2.372-0.966,3.767-0.966c1.31,0,2.448,0.273,3.413,0.82c0.967,0.548,1.631,1.477,1.997,2.785h0.063l1.997-9.497
				h2.027l-4.926,22.986H647.908z M645.816,339.061c0.9-0.59,1.657-1.341,2.269-2.253c0.612-0.913,1.078-1.921,1.401-3.027
				c0.322-1.104,0.483-2.173,0.483-3.203c0-1.48-0.402-2.65-1.208-3.509c-0.805-0.858-1.947-1.288-3.428-1.288
				c-1.159,0-2.185,0.29-3.074,0.87c-0.892,0.578-1.633,1.319-2.222,2.221c-0.592,0.901-1.036,1.895-1.337,2.978
				c-0.301,1.084-0.45,2.131-0.45,3.139c0,1.418,0.365,2.598,1.095,3.542c0.729,0.945,1.856,1.417,3.38,1.417
				C643.885,339.946,644.914,339.651,645.816,339.061z"/>
		</g>
	</g>
	<g>
		<linearGradient id="SVGID_1_" gradientUnits="userSpaceOnUse" x1="248.3512" y1="222.5032" x2="257.2406" y2="272.8761">
			<stop  offset="0" style="stop-color:#85085B"/>
			<stop  offset="1" style="stop-color:#CF1111"/>
		</linearGradient>
		<path style="fill:url(#SVGID_1_);" d="M186.869,245.075c0.987,2.635,32.115,26.42,70.024,29.156
			c45.104,3.257,65.456-11.662,61.01-28.168c-4.612-17.107-20.751-18.936-44.818-14.945
			C257.939,233.628,220.859,242.718,186.869,245.075z"/>
		
			<linearGradient id="SVGID_00000005988242929964656770000018024900287067762862_" gradientUnits="userSpaceOnUse" x1="324.6084" y1="313.3456" x2="195.6994" y2="350.7708">
			<stop  offset="0" style="stop-color:#FFC800"/>
			<stop  offset="0.256" style="stop-color:#FE9104"/>
			<stop  offset="0.6126" style="stop-color:#FD4B09"/>
			<stop  offset="0.87" style="stop-color:#FC1F0D"/>
			<stop  offset="1" style="stop-color:#FC0E0E"/>
		</linearGradient>
		<path style="fill:url(#SVGID_00000005988242929964656770000018024900287067762862_);" d="M327.777,296.126
			c0,0-15.395,22.965-47.085,22.226c-35.897-0.841-42.546-10.62-54.315-0.99c-11.467,9.379-6.748,37.53,30.289,38.518
			C279.2,356.48,312.805,346.484,327.777,296.126z"/>
		
			<linearGradient id="SVGID_00000158740292822948102570000010079251767471996083_" gradientUnits="userSpaceOnUse" x1="106.0624" y1="148.653" x2="191.0031" y2="212.8524">
			<stop  offset="0.1758" style="stop-color:#FFC800"/>
			<stop  offset="1" style="stop-color:#FC0E0E"/>
		</linearGradient>
		<path style="fill:url(#SVGID_00000158740292822948102570000010079251767471996083_);" d="M128.27,158.677
			c-5.856,1.543-15.909,13.109-4.446,28.809c10.699,14.648,27.217,23.355,53.502,21.563c29.629-2.02,35.883-7.736,35.883-7.736
			s-34.469,7.653-53.007-18.756C145.06,160.982,137.457,156.255,128.27,158.677z"/>
		
			<linearGradient id="SVGID_00000068667745113746972180000003357553647511964074_" gradientUnits="userSpaceOnUse" x1="365.435" y1="182.5575" x2="393.9502" y2="182.5575">
			<stop  offset="0" style="stop-color:#85085B"/>
			<stop  offset="1" style="stop-color:#CF1111"/>
		</linearGradient>
		<path style="fill:url(#SVGID_00000068667745113746972180000003357553647511964074_);" d="M367.258,195.905
			c0,0-5.9-17.348,3.53-24.166c7.547-5.457,20.352-1.123,23.162,3.936C382.149,174.27,370.665,187.958,367.258,195.905z"/>
		
			<linearGradient id="SVGID_00000096031845685821024070000009080761438743734719_" gradientUnits="userSpaceOnUse" x1="199.7204" y1="360.0442" x2="286.2959" y2="360.0442">
			<stop  offset="0" style="stop-color:#85085B"/>
			<stop  offset="1" style="stop-color:#CF1111"/>
		</linearGradient>
		<path style="fill:url(#SVGID_00000096031845685821024070000009080761438743734719_);" d="M213.209,346.991
			c4.783,2.261,11.215,8.996,20.986,12.283c20.002,6.728,36.051,2.223,52.101-5.535c-17.284,13.991-39.294,27.187-70.617,16.954
			C190.74,362.546,199.104,340.319,213.209,346.991z"/>
		
			<linearGradient id="SVGID_00000062899741184533460350000011571596232688019903_" gradientUnits="userSpaceOnUse" x1="286.726" y1="472.6379" x2="277.8373" y2="360.0473">
			<stop  offset="0.3691" style="stop-color:#FFC800"/>
			<stop  offset="1" style="stop-color:#FC0E0E"/>
		</linearGradient>
		<path style="fill:url(#SVGID_00000062899741184533460350000011571596232688019903_);" d="M293.084,355.905
			c0,0-14.542,9.544-20.445,17.778c-10.744,14.979-9.527,29.833,0.075,35.249c9.383,5.288,18.775-4.945,15.363-14.483
			C282.347,378.437,283.146,367.307,293.084,355.905z"/>
		
			<linearGradient id="SVGID_00000065776017709582212030000012028295230727050643_" gradientUnits="userSpaceOnUse" x1="223.9761" y1="489.474" x2="265.4582" y2="348.237">
			<stop  offset="0.1758" style="stop-color:#FFC800"/>
			<stop  offset="1" style="stop-color:#FC0E0E"/>
		</linearGradient>
		<path style="fill:url(#SVGID_00000065776017709582212030000012028295230727050643_);" d="M271.064,368.687
			c0,0-21.974,9.006-36.713,43.32c-7.469,17.376-9.104,41.314,1.896,44.129c12.516,3.203,14.801-10.026,14.808-28.015
			C251.069,397.117,259.629,380.849,271.064,368.687z"/>
		
			<linearGradient id="SVGID_00000160898146712238244690000017891012790030508424_" gradientUnits="userSpaceOnUse" x1="165.0917" y1="413.6205" x2="248.0554" y2="369.1757">
			<stop  offset="0.1758" style="stop-color:#FFC800"/>
			<stop  offset="1" style="stop-color:#FC0E0E"/>
		</linearGradient>
		<path style="fill:url(#SVGID_00000160898146712238244690000017891012790030508424_);" d="M206.912,380.091
			c-7.664-4.785-15.984,9.238-3.677,14.975c20.479,9.539,43.561-12.785,46.965-16.644c3.482-3.957-9.398,2.897-17.62,4.127
			C220.65,384.329,215.711,385.59,206.912,380.091z"/>
		
			<linearGradient id="SVGID_00000110469370535058809240000016890691186652444849_" gradientUnits="userSpaceOnUse" x1="248.5994" y1="197.03" x2="378.461" y2="291.7208">
			<stop  offset="0.1758" style="stop-color:#FFC800"/>
			<stop  offset="1" style="stop-color:#FC0E0E"/>
		</linearGradient>
		<path style="fill:url(#SVGID_00000110469370535058809240000016890691186652444849_);" d="M326.119,240.769
			c25.175,37.328-2.352,82.492-24.024,108.371c0,0,0.002,0,0.002-0.002c10.935-6.431,19.098-15.845,29.633-23.123
			c55.309-44.105,55.95-78.84,38.409-110.877c-8.349-15.247-10.381-25.771-8.936-33.05c-0.154-4.177,1.905-8.63,4.637-12.673
			c-42.79,11.111-22.944,45.439-18.309,60.538c-36.051-62.718-108.743-21.745-161.419-15.161
			c-52.676,6.586-64.856-15.555-64.856-15.555c3.62,15.391,28.884,46.734,71.214,41.086
			C250.967,232.518,305.389,210.036,326.119,240.769z"/>
		
			<linearGradient id="SVGID_00000111156818804720034280000001109106398882872233_" gradientUnits="userSpaceOnUse" x1="289.928" y1="364.6082" x2="324.5674" y2="364.6082">
			<stop  offset="0" style="stop-color:#85085B"/>
			<stop  offset="1" style="stop-color:#CF1111"/>
		</linearGradient>
		<path style="fill:url(#SVGID_00000111156818804720034280000001109106398882872233_);" d="M295.557,361.975
			c-19.016,23.304,15.4,43.198,25.76,16.554c4.172-10.732-1.334-26.752,3.251-40.573
			C308.302,350.267,301.507,354.681,295.557,361.975z"/>
		
			<radialGradient id="SVGID_00000082370573010693752750000017510883951104135608_" cx="566.5217" cy="22.1073" r="10.5872" gradientTransform="matrix(-0.4526 0.8917 0.8917 0.4526 563.9099 -346.1715)" gradientUnits="userSpaceOnUse">
			<stop  offset="0" style="stop-color:#CF1111"/>
			<stop  offset="1" style="stop-color:#85085B"/>
		</radialGradient>
		<path style="fill:url(#SVGID_00000082370573010693752750000017510883951104135608_);" d="M325.742,179.293
			c3.564,1.808,7.925,0.386,9.737-3.181c1.808-3.567,0.383-7.926-3.181-9.736c-3.568-1.81-7.927-0.387-9.739,3.18
			C320.752,173.121,322.176,177.482,325.742,179.293z"/>
		
			<radialGradient id="SVGID_00000007403428053960224350000011674413123958639288_" cx="549.9514" cy="30.3201" r="7.517" gradientTransform="matrix(-0.4526 0.8917 0.8917 0.4526 563.9099 -346.1715)" gradientUnits="userSpaceOnUse">
			<stop  offset="0" style="stop-color:#CF1111"/>
			<stop  offset="1" style="stop-color:#85085B"/>
		</radialGradient>
		<path style="fill:url(#SVGID_00000007403428053960224350000011674413123958639288_);" d="M340.992,165.251
			c2.531,1.285,5.628,0.275,6.912-2.258c1.286-2.531,0.277-5.629-2.255-6.914c-2.534-1.286-5.633-0.275-6.917,2.259
			C337.446,160.87,338.458,163.968,340.992,165.251z"/>
		
			<radialGradient id="SVGID_00000132777308287670760600000008019501534671653045_" cx="105.8025" cy="199.8047" r="10.5853" gradientUnits="userSpaceOnUse">
			<stop  offset="0" style="stop-color:#CF1111"/>
			<stop  offset="1" style="stop-color:#85085B"/>
		</radialGradient>
		<path style="fill:url(#SVGID_00000132777308287670760600000008019501534671653045_);" d="M115.646,203.148
			c0,3.998-3.244,7.241-7.243,7.241s-7.243-3.243-7.243-7.241c0-4.002,3.244-7.242,7.243-7.242S115.646,199.145,115.646,203.148z"/>
		
			<radialGradient id="SVGID_00000062909627388533531320000007764676479712863405_" cx="105.8025" cy="143.5331" r="10.5859" gradientUnits="userSpaceOnUse">
			<stop  offset="0" style="stop-color:#CF1111"/>
			<stop  offset="1" style="stop-color:#85085B"/>
		</radialGradient>
		<path style="fill:url(#SVGID_00000062909627388533531320000007764676479712863405_);" d="M115.646,146.876
			c0,4-3.244,7.242-7.243,7.242s-7.243-3.242-7.243-7.242c0-4.002,3.244-7.243,7.243-7.243S115.646,142.874,115.646,146.876z"/>
		
			<radialGradient id="SVGID_00000005953733761417168040000008693331079698401416_" cx="97.8499" cy="170.7639" r="13.4789" gradientUnits="userSpaceOnUse">
			<stop  offset="0" style="stop-color:#CF1111"/>
			<stop  offset="1" style="stop-color:#85085B"/>
		</radialGradient>
		<path style="fill:url(#SVGID_00000005953733761417168040000008693331079698401416_);" d="M110.383,175.023
			c0,5.091-4.128,9.22-9.219,9.22c-5.096,0-9.225-4.129-9.225-9.22c0-5.095,4.129-9.226,9.225-9.226
			C106.255,165.798,110.383,169.929,110.383,175.023z"/>
		
			<radialGradient id="SVGID_00000109019825204445015680000014189081974917808267_" cx="116.7948" cy="220.0015" r="7.274" gradientUnits="userSpaceOnUse">
			<stop  offset="0" style="stop-color:#CF1111"/>
			<stop  offset="1" style="stop-color:#85085B"/>
		</radialGradient>
		<path style="fill:url(#SVGID_00000109019825204445015680000014189081974917808267_);" d="M123.558,222.299
			c0,2.749-2.228,4.977-4.976,4.977c-2.748,0-4.977-2.229-4.977-4.977c0-2.749,2.229-4.978,4.977-4.978
			C121.33,217.321,123.558,219.55,123.558,222.299z"/>
		
			<radialGradient id="SVGID_00000063600428152902841140000016341014479192814508_" cx="128.3587" cy="234.101" r="6.2664" gradientUnits="userSpaceOnUse">
			<stop  offset="0" style="stop-color:#CF1111"/>
			<stop  offset="1" style="stop-color:#85085B"/>
		</radialGradient>
		<path style="fill:url(#SVGID_00000063600428152902841140000016341014479192814508_);" d="M134.185,236.081
			c0,2.365-1.919,4.287-4.288,4.287c-2.367,0-4.285-1.922-4.285-4.287c0-2.367,1.918-4.289,4.285-4.289
			C132.266,231.792,134.185,233.714,134.185,236.081z"/>
		
			<radialGradient id="SVGID_00000078751284364603161790000009641159132701694369_" cx="143.8304" cy="244.3058" r="6.267" gradientUnits="userSpaceOnUse">
			<stop  offset="0" style="stop-color:#CF1111"/>
			<stop  offset="1" style="stop-color:#85085B"/>
		</radialGradient>
		<path style="fill:url(#SVGID_00000078751284364603161790000009641159132701694369_);" d="M149.658,246.284
			c0,2.369-1.92,4.288-4.287,4.288c-2.368,0-4.289-1.919-4.289-4.288c0-2.365,1.921-4.287,4.289-4.287
			C147.738,241.997,149.658,243.919,149.658,246.284z"/>
		
			<radialGradient id="SVGID_00000078032744512861254500000002713631867022291588_" cx="164.3571" cy="248.5934" r="6.2671" gradientUnits="userSpaceOnUse">
			<stop  offset="0" style="stop-color:#CF1111"/>
			<stop  offset="1" style="stop-color:#85085B"/>
		</radialGradient>
		<path style="fill:url(#SVGID_00000078032744512861254500000002713631867022291588_);" d="M170.184,250.572
			c0,2.37-1.921,4.289-4.288,4.289c-2.368,0-4.286-1.919-4.286-4.289c0-2.367,1.918-4.288,4.286-4.288
			C168.263,246.284,170.184,248.205,170.184,250.572z"/>
		
			<radialGradient id="SVGID_00000001639248865741462440000002626301113830500488_" cx="197.8881" cy="469.1998" r="14.2636" gradientTransform="matrix(0.9921 0.1258 -0.1258 0.9921 62.5362 -47.7516)" gradientUnits="userSpaceOnUse">
			<stop  offset="0" style="stop-color:#CF1111"/>
			<stop  offset="1" style="stop-color:#85085B"/>
		</radialGradient>
		<path style="fill:url(#SVGID_00000001639248865741462440000002626301113830500488_);" d="M212.43,448.773
			c-0.68,5.35-5.566,9.134-10.908,8.452c-5.351-0.674-9.136-5.563-8.459-10.907c0.679-5.345,5.564-9.136,10.912-8.454
			C209.317,438.543,213.105,443.424,212.43,448.773z"/>
		
			<radialGradient id="SVGID_00000006703930559869521720000005000468909730557056_" cx="205.6902" cy="446.4292" r="9.8027" gradientTransform="matrix(0.9921 0.1258 -0.1258 0.9921 62.5362 -47.7516)" gradientUnits="userSpaceOnUse">
			<stop  offset="0" style="stop-color:#CF1111"/>
			<stop  offset="1" style="stop-color:#85085B"/>
		</radialGradient>
		<path style="fill:url(#SVGID_00000006703930559869521720000005000468909730557056_);" d="M219.093,425.246
			c-0.468,3.675-3.825,6.277-7.497,5.81c-3.676-0.464-6.275-3.824-5.809-7.498c0.463-3.672,3.82-6.273,7.496-5.812
			C216.955,418.214,219.558,421.572,219.093,425.246z"/>
		
			<radialGradient id="SVGID_00000115476723400663231820000004729199017908962489_" cx="196.7616" cy="496.7523" r="9.8009" gradientTransform="matrix(0.9921 0.1258 -0.1258 0.9921 62.5362 -47.7516)" gradientUnits="userSpaceOnUse">
			<stop  offset="0" style="stop-color:#CF1111"/>
			<stop  offset="1" style="stop-color:#85085B"/>
		</radialGradient>
		<path style="fill:url(#SVGID_00000115476723400663231820000004729199017908962489_);" d="M203.902,474.045
			c-0.467,3.674-3.824,6.278-7.498,5.811c-3.675-0.463-6.275-3.823-5.805-7.497c0.461-3.672,3.818-6.278,7.495-5.811
			C201.768,467.015,204.367,470.375,203.902,474.045z"/>
		
			<radialGradient id="SVGID_00000109731289823312126440000010803141803256376465_" cx="216.1498" cy="428.606" r="8.4442" gradientTransform="matrix(0.9921 0.1258 -0.1258 0.9921 62.5362 -47.7516)" gradientUnits="userSpaceOnUse">
			<stop  offset="0" style="stop-color:#CF1111"/>
			<stop  offset="1" style="stop-color:#85085B"/>
		</radialGradient>
		<path style="fill:url(#SVGID_00000109731289823312126440000010803141803256376465_);" d="M230.516,408.294
			c-0.406,3.164-3.295,5.409-6.461,5.003c-3.165-0.397-5.406-3.29-5.005-6.455c0.4-3.166,3.293-5.405,6.458-5.007
			C228.676,402.236,230.916,405.13,230.516,408.294z"/>
		
			<radialGradient id="SVGID_00000000185263696314122320000003758269521722649236_" cx="538.6462" cy="43.2594" r="7.4183" gradientTransform="matrix(-0.4526 0.8917 0.8917 0.4526 563.9104 -346.172)" gradientUnits="userSpaceOnUse">
			<stop  offset="0" style="stop-color:#CF1111"/>
			<stop  offset="1" style="stop-color:#85085B"/>
		</radialGradient>
		<path style="fill:url(#SVGID_00000000185263696314122320000003758269521722649236_);" d="M357.659,160.929
			c2.5,1.268,5.556,0.271,6.824-2.229c1.27-2.5,0.272-5.553-2.228-6.822c-2.498-1.27-5.554-0.271-6.824,2.229
			C354.166,156.607,355.162,159.661,357.659,160.929z"/>
	</g>
</g>
</svg>
